<?xml version="1.0" ?><svg height="48" viewBox="0 0 48 48" width="48" xmlns="http://www.w3.org/2000/svg"><path d="M0 0h48v48h-48z" fill="none"/><path d="M24 4c-7.1 0-13 1.6-16 4v21.1c0 3.26 2.12 6.02 5 7.1v5.8c0 1.1.9 2 2 2h2c1.1 0 2-.9 2-2v-4h10v4c0 1.1.9 2 2 2h2c1.1 0 2-.9 2-2v-5.8c2.88-1.08 5-3.84 5-7.1v-21.1c-3-2.4-8.9-4-16-4zm-12 10.5c0-1.38 1.12-2.5 2.5-2.5h19c1.38 0 2.5 1.12 2.5 2.5v7c0 1.38-1.12 2.5-2.5 2.5h-19c-1.38 0-2.5-1.12-2.5-2.5v-7zm5 19.5c-1.66 0-3-1.34-3-3s1.34-3 3-3 3 1.34 3 3-1.34 3-3 3zm14 0c-1.66 0-3-1.34-3-3s1.34-3 3-3 3 1.34 3 3-1.34 3-3 3z"/></svg>
